<?xml version="1.0" encoding="utf-8"?>
<!-- Generator: Adobe Illustrator 19.1.0, SVG Export Plug-In . SVG Version: 6.00 Build 0)  -->
<svg version="1.1" id="Layer_1" xmlns="http://www.w3.org/2000/svg" xmlns:xlink="http://www.w3.org/1999/xlink" x="0px" y="0px"
	 viewBox="409.243 -152.749 241.857 57.801" enable-background="new 409.243 -152.749 241.857 57.801" xml:space="preserve">
<g id="Layer_1_1_">
</g>
<g id="Logo">
	
		<linearGradient id="SVGID_1_" gradientUnits="userSpaceOnUse" x1="251.7806" y1="165.4997" x2="598.1173" y2="165.4997" gradientTransform="matrix(1 0 0 -1 0 40.4)">
		<stop  offset="0" style="stop-color:#AB4123"/>
		<stop  offset="1" style="stop-color:#F37121"/>
	</linearGradient>
	<path fill="url(#SVGID_1_)" d="M439.4-118.2c2.1,1.8,2.3,5,0.4,7.1c-1.7,1.9-4.4,2.2-6.5,0.9l0,0c-0.1-0.1-0.2-0.1-0.3-0.2
		c-4.8-3.2-10.5-3.5-15.4,0l0,0c-1.9,1.5-4.7,1.4-6.6-0.2c-1.9-1.7-2.3-4.4-1-6.5v-0.1l0,0l0,0v-0.1l0,0l0,0c0.6-1,1.5-1.6,2.3-2.8
		c2.6-4,1.9-9-0.5-13.4l-0.1-0.1l0,0c-1-1.9-0.7-4.4,1-5.9c2-1.9,5.2-1.8,7.1,0.2c1.1,1.1,1.5,2.6,1.4,4.1l0,0l0,0
		c-0.1,0.8-0.3,1.4-0.7,1.9l0,0l0,0c-0.1,0.1-0.2,0.3-0.3,0.4c-0.3,0.5-0.7,0.9-1,1.4c-2.5,3.7-3.2,8.1-1.5,12.2
		c0.4,1,1,1.7,1.8,2.2c4.1,2,8,1.4,12-0.6c1.4-0.7,2.4-1.6,4-1.7l0,0l0,0C437-119.5,438.4-119.1,439.4-118.2z"/>
	
		<linearGradient id="SVGID_2_" gradientUnits="userSpaceOnUse" x1="424.9711" y1="178.5555" x2="462.0083" y2="178.5555" gradientTransform="matrix(1 0 0 -1 0 40.4)">
		<stop  offset="0" style="stop-color:#AB4123"/>
		<stop  offset="1" style="stop-color:#F37121"/>
	</linearGradient>
	<path fill="url(#SVGID_2_)" d="M431.3-123.9c-2.6,1-5.5-0.3-6.5-2.8c-0.9-2.3,0-4.9,2.2-6.2l0,0c0.1-0.1,0.2-0.1,0.3-0.1
		c5.1-2.8,7.9-7.8,7-13.7l0,0c-0.4-2.4,0.9-4.8,3.2-5.7c2.3-0.9,4.9,0,6.2,2v0.1l0,0l0,0v0.1l0,0l0,0c0.6,1,0.7,2.1,1.4,3.3
		c2.4,4.1,7.1,5.8,12.2,5.7h0.2l0,0c2.2,0,4.2,1.4,4.8,3.6c0.8,2.7-0.7,5.5-3.4,6.2c-1.5,0.4-3,0.2-4.2-0.6l0,0l0,0
		c-0.7-0.4-1.1-0.9-1.4-1.5l0,0l0,0c-0.1-0.1-0.2-0.3-0.2-0.4c-0.3-0.5-0.5-1-0.8-1.6c-2.1-3.9-5.7-6.5-10.2-6.9
		c-1.1-0.1-2,0.1-2.8,0.6c-3.7,2.7-4.9,6.5-4.9,10.9c0,1.6,0.4,2.8-0.3,4.4l0,0l0,0C433.6-125.4,432.6-124.4,431.3-123.9z"/>
	
		<linearGradient id="SVGID_3_" gradientUnits="userSpaceOnUse" x1="369.0587" y1="154.0369" x2="524.2466" y2="154.0369" gradientTransform="matrix(1 0 0 -1 0 40.4)">
		<stop  offset="0" style="stop-color:#AB4123"/>
		<stop  offset="1" style="stop-color:#F37121"/>
	</linearGradient>
	<path fill="url(#SVGID_3_)" d="M441.3-128.5c0.7-2.7,3.4-4.3,6.1-3.7c2.4,0.6,4,2.9,3.8,5.3l0,0c0,0.1,0,0.2,0,0.3
		c-0.7,5.7,1.8,11,7.2,13.7l0,0c2.2,1,3.4,3.5,2.8,5.9s-2.8,4-5.2,3.9h-0.1l0,0l0,0h-0.1l0,0l0,0c-1.1-0.1-2.1-0.6-3.5-0.7
		c-4.8-0.4-8.8,2.5-11.7,6.6l-0.1,0.1l0,0c-1.2,1.8-3.6,2.6-5.7,1.9c-2.6-0.9-4-3.7-3.1-6.4c0.5-1.5,1.6-2.6,3-3.1l0,0l0,0
		c0.7-0.3,1.4-0.4,2-0.3l0,0l0,0c0.2,0,0.3,0,0.5,0.1c0.6,0.1,1.1,0.2,1.7,0.3c4.4,0.5,8.6-0.9,11.6-4.3c0.7-0.8,1.1-1.7,1.1-2.7
		c-0.1-4.6-2.4-7.8-6-10.3c-1.3-0.9-2.5-1.3-3.4-2.7l0,0l0,0C441.2-125.8,440.9-127.1,441.3-128.5z"/>
</g>
<g id="Database">
	<path fill="#FFFFFF" d="M494.9-124.8c0,3.6-1.4,6.2-4.1,7.9c-1.6,1-4.1,1.4-7.6,1.4h-10.7V-134h11.9c3.2,0,5.7,0.7,7.5,2.1
		C493.9-130.2,494.9-127.9,494.9-124.8L494.9-124.8z M490.5-124.9c0-3.8-2-5.8-6.1-5.8h-7.6v11.7h5.5c2.6,0,4.5-0.3,5.7-1
		C489.7-120.9,490.5-122.5,490.5-124.9L490.5-124.9z M519.9-115.5L509.3-134h-4.1l-10.4,18.5h4.3l2.1-4h11.7l2.2,4H519.9
		L519.9-115.5z M511.1-122.9H503l4.1-7.5L511.1-122.9L511.1-122.9z M536.6-130.7h-8.5v15.2h-4.3v-15.2h-8.5v-3.3h21.3V-130.7
		L536.6-130.7z M557.2-115.5L546.6-134h-4.1l-10.4,18.5h4.3l2.1-4h11.7l2.2,4H557.2L557.2-115.5z M548.4-122.9h-8.1l4.1-7.5
		L548.4-122.9L548.4-122.9z M579.4-119.1c0,2.4-1.8,3.6-5.4,3.6h-14.7V-134h15.8c2.8,0,4.1,1.2,4.1,3.6v2.3c0,1.8-1.1,2.8-3.2,3.1
		c2.2,0.3,3.3,1.5,3.3,3.5L579.4-119.1L579.4-119.1z M575.3-127.9v-1.8c0-0.9-0.7-1.3-2-1.3h-9.8v4.4h9.8
		C574.7-126.5,575.3-127,575.3-127.9L575.3-127.9z M575.4-120.5v-1.4c0-0.7-0.2-1.1-0.5-1.3s-0.9-0.3-1.6-0.3h-9.8v4.7h9.8
		c0.7,0,1.3-0.1,1.6-0.3C575.3-119.3,575.4-119.8,575.4-120.5L575.4-120.5z M605.5-115.5h-4.8l-2.2-4h-11.7l-2.1,4h-4.3l10.4-18.5
		h4.1L605.5-115.5L605.5-115.5z M596.7-122.9l-4-7.5l-4.1,7.5H596.7L596.7-122.9z M627-119.9c0,1.7-0.3,2.9-1,3.5s-1.9,0.9-3.6,0.9
		H611c-1.9,0-3.1-0.3-3.7-1c-0.6-0.7-0.9-2-0.9-3.9l3.8-0.8v2.2h13.1v-4.2h-11.5c-1.7,0-2.9-0.3-3.6-0.9s-1-1.8-1-3.5v-2
		c0-1.7,0.3-2.9,1-3.5c0.7-0.6,1.9-0.9,3.6-0.9h10.5c1.8,0,3,0.3,3.6,0.9c0.6,0.6,1,1.8,1,3.5l-3.8,0.9v-2.1H611v4h11.5
		c1.7,0,2.9,0.3,3.6,0.9c0.7,0.6,1,1.8,1,3.5v2.5H627z M651.1-115.5H632V-134h18.9v3.1h-14.6v4.1h8.5v3.1h-8.5v4.6h14.8L651.1-115.5
		L651.1-115.5z"/>
</g>
<g id="Tagline">
	<path fill="#FFFFFF" d="M478.9-106.5c0,0.5-0.1,0.9-0.3,1.1c-0.2,0.2-0.6,0.3-1.1,0.3H474c-0.6,0-0.9-0.1-1.1-0.3
		c-0.2-0.2-0.3-0.6-0.3-1.1v-3.1c0-0.5,0.1-0.9,0.3-1.1c0.2-0.2,0.6-0.3,1.1-0.3h3.5c0.7,0,1.1,0.2,1.3,0.5c0.1,0.2,0.2,0.7,0.2,1.4
		l-1.4,0.2v-1.1h-3.7v3.7h3.7v-1.3l1.4,0.3v0.8H478.9z M491.9-106.5c0,0.5-0.1,0.9-0.3,1.1c-0.2,0.2-0.6,0.3-1.1,0.3h-4.3
		c-0.6,0-0.9-0.1-1.1-0.3c-0.2-0.2-0.3-0.6-0.3-1.1v-3.1c0-0.5,0.1-0.9,0.3-1.1c0.2-0.2,0.6-0.3,1.1-0.3h4.3c0.6,0,0.9,0.1,1.1,0.3
		c0.2,0.2,0.3,0.6,0.3,1.1V-106.5L491.9-106.5z M490.6-106.2v-3.7h-4.5v3.7H490.6L490.6-106.2z M504.8-105.1h-0.9l-4.3-3.6
		c-0.2-0.2-0.3-0.3-0.5-0.5c0,0.4,0.1,0.7,0.1,0.9v3.2H498v-5.8h0.9l4.1,3.4c0.3,0.2,0.5,0.5,0.7,0.6c0-0.5-0.1-0.9-0.1-1v-3.1h1.2
		L504.8-105.1L504.8-105.1z M517.3-106.5c0,0.5-0.1,0.9-0.3,1.1s-0.6,0.3-1.1,0.3h-3.6c-0.6,0-1-0.1-1.2-0.3
		c-0.2-0.2-0.3-0.6-0.3-1.2l1.2-0.2v0.7h4.1v-1.3h-3.6c-0.6,0-0.9-0.1-1.1-0.3c-0.2-0.2-0.3-0.6-0.3-1.1v-0.6c0-0.5,0.1-0.9,0.3-1.1
		c0.2-0.2,0.6-0.3,1.1-0.3h3.3c0.6,0,0.9,0.1,1.1,0.3c0.2,0.2,0.3,0.6,0.3,1.1l-1.2,0.3v-0.7h-3.8v1.3h3.6c0.6,0,0.9,0.1,1.1,0.3
		c0.2,0.2,0.3,0.6,0.3,1.1L517.3-106.5L517.3-106.5z M529.9-106.5c0,0.5-0.1,0.9-0.3,1.1c-0.2,0.2-0.6,0.3-1.1,0.3h-3.7
		c-0.6,0-0.9-0.1-1.1-0.3c-0.2-0.2-0.3-0.6-0.3-1.1v-4.5h1.4v4.7h3.9v-4.7h1.4v4.5H529.9z M541.8-105.1h-5.7v-5.8h1.4v4.7h4.4
		L541.8-105.1L541.8-105.1z M551.1-109.9h-2.7v4.8H547v-4.8h-2.7v-1h6.7v1H551.1z M557.3-105.1h-1.4v-5.8h1.4V-105.1L557.3-105.1z
		 M570.3-105.1h-0.9l-4.3-3.6c-0.2-0.2-0.3-0.3-0.5-0.5c0,0.4,0.1,0.7,0.1,0.9v3.2h-1.2v-5.8h0.9l4.1,3.4c0.3,0.2,0.5,0.5,0.7,0.6
		c0-0.5-0.1-0.9-0.1-1v-3.1h1.2L570.3-105.1L570.3-105.1z M583.3-106.5c0,0.5-0.1,0.9-0.3,1.1s-0.6,0.3-1.1,0.3h-4
		c-0.6,0-0.9-0.1-1.1-0.3c-0.2-0.2-0.3-0.6-0.3-1.1v-3.1c0-0.5,0.1-0.9,0.3-1.1c0.2-0.2,0.6-0.3,1.1-0.3h4c0.6,0,1,0.1,1.2,0.3
		c0.2,0.2,0.3,0.6,0.3,1.2l-1.3,0.2v-0.7h-4.2v3.7h4.2v-1.3h-2.2v-1h3.5v2.1C583.4-106.5,583.3-106.5,583.3-106.5z M600.5-106.5
		c0,0.5-0.1,0.9-0.3,1.1s-0.6,0.3-1.1,0.3h-4c-0.6,0-0.9-0.1-1.1-0.3c-0.2-0.2-0.3-0.6-0.3-1.1v-3.1c0-0.5,0.1-0.9,0.3-1.1
		c0.2-0.2,0.6-0.3,1.1-0.3h4c0.6,0,1,0.1,1.2,0.3c0.2,0.2,0.3,0.6,0.3,1.2l-1.3,0.2v-0.7h-4.2v3.7h4.2v-1.3H597v-1h3.5V-106.5
		L600.5-106.5z M613.5-105.1h-1.9l-2.4-2.2h-1.3v2.2h-1.3v-5.8h5c0.9,0,1.3,0.4,1.3,1.1v1.4c0,0.6-0.2,0.9-0.7,1.1
		c-0.2,0.1-0.6,0.1-1.4,0.1L613.5-105.1L613.5-105.1z M611.6-108.8v-0.7c0-0.2-0.1-0.3-0.2-0.4c-0.1-0.1-0.2-0.1-0.4-0.1h-3.1v1.6
		h3.1c0.2,0,0.4,0,0.4-0.1C611.5-108.5,611.6-108.6,611.6-108.8L611.6-108.8z M625.9-106.5c0,0.5-0.1,0.9-0.3,1.1s-0.6,0.3-1.1,0.3
		h-4.3c-0.6,0-0.9-0.1-1.1-0.3c-0.2-0.2-0.3-0.6-0.3-1.1v-3.1c0-0.5,0.1-0.9,0.3-1.1s0.6-0.3,1.1-0.3h4.3c0.6,0,0.9,0.1,1.1,0.3
		c0.2,0.2,0.3,0.6,0.3,1.1V-106.5L625.9-106.5z M624.5-106.2v-3.7H620v3.7H624.5L624.5-106.2z M638.5-106.5c0,0.5-0.1,0.9-0.3,1.1
		s-0.6,0.3-1.1,0.3h-3.7c-0.6,0-0.9-0.1-1.1-0.3c-0.2-0.2-0.3-0.6-0.3-1.1v-4.5h1.4v4.7h3.9v-4.7h1.4v4.5H638.5z M651-108.5
		c0,0.8-0.4,1.1-1.3,1.1H646v2.3h-1.3v-5.8h5c0.9,0,1.3,0.4,1.3,1.1V-108.5L651-108.5z M649.7-108.9v-0.6c0-0.2-0.1-0.3-0.2-0.4
		c-0.1-0.1-0.2-0.1-0.4-0.1H646v1.6h3.1c0.2,0,0.4,0,0.4-0.1C649.7-108.6,649.7-108.7,649.7-108.9z"/>
</g>
</svg>
