<?xml version="1.0" encoding="utf-8"?>
<!-- Generator: Adobe Illustrator 19.1.0, SVG Export Plug-In . SVG Version: 6.00 Build 0)  -->
<svg version="1.1" id="Layer_1" xmlns="http://www.w3.org/2000/svg" xmlns:xlink="http://www.w3.org/1999/xlink" x="0px" y="0px"
	 viewBox="273.243 -16.749 241.857 57.801" enable-background="new 273.243 -16.749 241.857 57.801" xml:space="preserve">
<g id="Layer_1_1_">
</g>
<g id="Logo">
	<linearGradient id="SVGID_1_" gradientUnits="userSpaceOnUse" x1="115.7806" y1="10.9003" x2="462.1173" y2="10.9003">
		<stop  offset="0" style="stop-color:#AB4123"/>
		<stop  offset="1" style="stop-color:#F37121"/>
	</linearGradient>
	<path fill="url(#SVGID_1_)" d="M303.4,17.8c2.1,1.8,2.3,5,0.4,7.1c-1.7,1.9-4.4,2.2-6.5,0.9l0,0c-0.1-0.1-0.2-0.1-0.3-0.2
		c-4.8-3.2-10.5-3.5-15.4,0l0,0c-1.9,1.5-4.7,1.4-6.6-0.2c-1.9-1.7-2.3-4.4-1-6.5v-0.1l0,0l0,0v-0.1l0,0l0,0c0.6-1,1.5-1.6,2.3-2.8
		c2.6-4,1.9-9-0.5-13.4l-0.1-0.1l0,0c-1-1.9-0.7-4.4,1-5.9c2-1.9,5.2-1.8,7.1,0.2c1.1,1.1,1.5,2.6,1.4,4.1l0,0l0,0
		c-0.1,0.8-0.3,1.4-0.7,1.9l0,0l0,0c-0.1,0.1-0.2,0.3-0.3,0.4c-0.3,0.5-0.7,0.9-1,1.4c-2.5,3.7-3.2,8.1-1.5,12.2
		c0.4,1,1,1.7,1.8,2.2c4.1,2,8,1.4,12-0.6c1.4-0.7,2.4-1.6,4-1.7l0,0l0,0C301,16.5,302.4,16.9,303.4,17.8z"/>
	<linearGradient id="SVGID_2_" gradientUnits="userSpaceOnUse" x1="288.9711" y1="-2.1555" x2="326.0083" y2="-2.1555">
		<stop  offset="0" style="stop-color:#AB4123"/>
		<stop  offset="1" style="stop-color:#F37121"/>
	</linearGradient>
	<path fill="url(#SVGID_2_)" d="M295.3,12.1c-2.6,1-5.5-0.3-6.5-2.8c-0.9-2.3,0-4.9,2.2-6.2l0,0c0.1-0.1,0.2-0.1,0.3-0.1
		c5.1-2.8,7.9-7.8,7-13.7l0,0c-0.4-2.4,0.9-4.8,3.2-5.7c2.3-0.9,4.9,0,6.2,2v0.1l0,0l0,0v0.1l0,0l0,0c0.6,1,0.7,2.1,1.4,3.3
		c2.4,4.1,7.1,5.8,12.2,5.7h0.2l0,0c2.2,0,4.2,1.4,4.8,3.6c0.8,2.7-0.7,5.5-3.4,6.2c-1.5,0.4-3,0.2-4.2-0.6l0,0l0,0
		c-0.7-0.4-1.1-0.9-1.4-1.5l0,0l0,0c-0.1-0.1-0.2-0.3-0.2-0.4c-0.3-0.5-0.5-1-0.8-1.6c-2.1-3.9-5.7-6.5-10.2-6.9
		c-1.1-0.1-2,0.1-2.8,0.6c-3.7,2.7-4.9,6.5-4.9,10.9c0,1.6,0.4,2.8-0.3,4.4l0,0l0,0C297.6,10.6,296.6,11.6,295.3,12.1z"/>
	<linearGradient id="SVGID_3_" gradientUnits="userSpaceOnUse" x1="233.0587" y1="22.363" x2="388.2466" y2="22.363">
		<stop  offset="0" style="stop-color:#AB4123"/>
		<stop  offset="1" style="stop-color:#F37121"/>
	</linearGradient>
	<path fill="url(#SVGID_3_)" d="M305.3,7.5c0.7-2.7,3.4-4.3,6.1-3.7c2.4,0.6,4,2.9,3.8,5.3l0,0c0,0.1,0,0.2,0,0.3
		c-0.7,5.7,1.8,11,7.2,13.7l0,0c2.2,1,3.4,3.5,2.8,5.9s-2.8,4-5.2,3.9h-0.1l0,0l0,0h-0.1l0,0l0,0c-1.1-0.1-2.1-0.6-3.5-0.7
		c-4.8-0.4-8.8,2.5-11.7,6.6l-0.1,0.1l0,0c-1.2,1.8-3.6,2.6-5.7,1.9c-2.6-0.9-4-3.7-3.1-6.4c0.5-1.5,1.6-2.6,3-3.1l0,0l0,0
		c0.7-0.3,1.4-0.4,2-0.3l0,0l0,0c0.2,0,0.3,0,0.5,0.1c0.6,0.1,1.1,0.2,1.7,0.3c4.4,0.5,8.6-0.9,11.6-4.3c0.7-0.8,1.1-1.7,1.1-2.7
		c-0.1-4.6-2.4-7.8-6-10.3c-1.3-0.9-2.5-1.3-3.4-2.7l0,0l0,0C305.2,10.2,304.9,8.9,305.3,7.5z"/>
</g>
<g id="Database">
	<path d="M358.9,11.2c0,3.6-1.4,6.2-4.1,7.9c-1.6,1-4.1,1.4-7.6,1.4h-10.7V2h11.9c3.2,0,5.7,0.7,7.5,2.1
		C357.9,5.8,358.9,8.1,358.9,11.2L358.9,11.2z M354.5,11.1c0-3.8-2-5.8-6.1-5.8h-7.6V17h5.5c2.6,0,4.5-0.3,5.7-1
		C353.7,15.1,354.5,13.5,354.5,11.1L354.5,11.1z M383.9,20.5L373.3,2h-4.1l-10.4,18.5h4.3l2.1-4h11.7l2.2,4H383.9L383.9,20.5z
		 M375.1,13.1H367l4.1-7.5L375.1,13.1L375.1,13.1z M400.6,5.3h-8.5v15.2h-4.3V5.3h-8.5V2h21.3V5.3L400.6,5.3z M421.2,20.5L410.6,2
		h-4.1l-10.4,18.5h4.3l2.1-4h11.7l2.2,4H421.2L421.2,20.5z M412.4,13.1h-8.1l4.1-7.5L412.4,13.1L412.4,13.1z M443.4,16.9
		c0,2.4-1.8,3.6-5.4,3.6h-14.7V2h15.8c2.8,0,4.1,1.2,4.1,3.6v2.3c0,1.8-1.1,2.8-3.2,3.1c2.2,0.3,3.3,1.5,3.3,3.5L443.4,16.9
		L443.4,16.9z M439.3,8.1V6.3c0-0.9-0.7-1.3-2-1.3h-9.8v4.4h9.8C438.7,9.5,439.3,9,439.3,8.1L439.3,8.1z M439.4,15.5v-1.4
		c0-0.7-0.2-1.1-0.5-1.3c-0.3-0.2-0.9-0.3-1.6-0.3h-9.8v4.7h9.8c0.7,0,1.3-0.1,1.6-0.3C439.3,16.7,439.4,16.2,439.4,15.5L439.4,15.5
		z M469.5,20.5h-4.8l-2.2-4h-11.7l-2.1,4h-4.3L454.8,2h4.1L469.5,20.5L469.5,20.5z M460.7,13.1l-4-7.5l-4.1,7.5H460.7L460.7,13.1z
		 M491,16.1c0,1.7-0.3,2.9-1,3.5s-1.9,0.9-3.6,0.9H475c-1.9,0-3.1-0.3-3.7-1s-0.9-2-0.9-3.9l3.8-0.8V17h13.1v-4.2h-11.5
		c-1.7,0-2.9-0.3-3.6-0.9s-1-1.8-1-3.5v-2c0-1.7,0.3-2.9,1-3.5s1.9-0.9,3.6-0.9h10.5c1.8,0,3,0.3,3.6,0.9c0.6,0.6,1,1.8,1,3.5
		l-3.8,0.9V5.2H475v4h11.5c1.7,0,2.9,0.3,3.6,0.9s1,1.8,1,3.5v2.5H491z M515.1,20.5H496V2h18.9v3.1h-14.6v4.1h8.5v3.1h-8.5v4.6h14.8
		L515.1,20.5L515.1,20.5z"/>
</g>
<g id="Tagline">
	<path d="M342.9,29.5c0,0.5-0.1,0.9-0.3,1.1c-0.2,0.2-0.6,0.3-1.1,0.3H338c-0.6,0-0.9-0.1-1.1-0.3s-0.3-0.6-0.3-1.1v-3.1
		c0-0.5,0.1-0.9,0.3-1.1c0.2-0.2,0.6-0.3,1.1-0.3h3.5c0.7,0,1.1,0.2,1.3,0.5c0.1,0.2,0.2,0.7,0.2,1.4l-1.4,0.2V26h-3.7v3.7h3.7v-1.3
		l1.4,0.3v0.8C343,29.5,342.9,29.5,342.9,29.5z M355.9,29.5c0,0.5-0.1,0.9-0.3,1.1c-0.2,0.2-0.6,0.3-1.1,0.3h-4.3
		c-0.6,0-0.9-0.1-1.1-0.3s-0.3-0.6-0.3-1.1v-3.1c0-0.5,0.1-0.9,0.3-1.1c0.2-0.2,0.6-0.3,1.1-0.3h4.3c0.6,0,0.9,0.1,1.1,0.3
		s0.3,0.6,0.3,1.1V29.5L355.9,29.5z M354.6,29.8v-3.7h-4.5v3.7H354.6L354.6,29.8z M368.8,30.9h-0.9l-4.3-3.6
		c-0.2-0.2-0.3-0.3-0.5-0.5c0,0.4,0.1,0.7,0.1,0.9v3.2H362v-5.8h0.9l4.1,3.4c0.3,0.2,0.5,0.5,0.7,0.6c0-0.5-0.1-0.9-0.1-1V25h1.2
		L368.8,30.9L368.8,30.9z M381.3,29.5c0,0.5-0.1,0.9-0.3,1.1c-0.2,0.2-0.6,0.3-1.1,0.3h-3.6c-0.6,0-1-0.1-1.2-0.3s-0.3-0.6-0.3-1.2
		l1.2-0.2v0.7h4.1v-1.3h-3.6c-0.6,0-0.9-0.1-1.1-0.3s-0.3-0.6-0.3-1.1v-0.6c0-0.5,0.1-0.9,0.3-1.1c0.2-0.2,0.6-0.3,1.1-0.3h3.3
		c0.6,0,0.9,0.1,1.1,0.3s0.3,0.6,0.3,1.1l-1.2,0.3v-0.7h-3.8v1.3h3.6c0.6,0,0.9,0.1,1.1,0.3s0.3,0.6,0.3,1.1L381.3,29.5L381.3,29.5z
		 M393.9,29.5c0,0.5-0.1,0.9-0.3,1.1c-0.2,0.2-0.6,0.3-1.1,0.3h-3.7c-0.6,0-0.9-0.1-1.1-0.3s-0.3-0.6-0.3-1.1V25h1.4v4.7h3.9V25h1.4
		v4.5H393.9z M405.8,30.9h-5.7v-5.8h1.4v4.7h4.4v1.1H405.8z M415.1,26.1h-2.7v4.8H411v-4.8h-2.7v-1h6.7v1H415.1z M421.3,30.9h-1.4
		v-5.8h1.4V30.9L421.3,30.9z M434.3,30.9h-0.9l-4.3-3.6c-0.2-0.2-0.3-0.3-0.5-0.5c0,0.4,0.1,0.7,0.1,0.9v3.2h-1.2v-5.8h0.9l4.1,3.4
		c0.3,0.2,0.5,0.5,0.7,0.6c0-0.5-0.1-0.9-0.1-1V25h1.2L434.3,30.9L434.3,30.9z M447.3,29.5c0,0.5-0.1,0.9-0.3,1.1
		c-0.2,0.2-0.6,0.3-1.1,0.3h-4c-0.6,0-0.9-0.1-1.1-0.3s-0.3-0.6-0.3-1.1v-3.1c0-0.5,0.1-0.9,0.3-1.1c0.2-0.2,0.6-0.3,1.1-0.3h4
		c0.6,0,1,0.1,1.2,0.3s0.3,0.6,0.3,1.2l-1.3,0.2V26h-4.2v3.7h4.2v-1.3h-2.2v-1h3.5v2.1C447.4,29.5,447.3,29.5,447.3,29.5z
		 M464.5,29.5c0,0.5-0.1,0.9-0.3,1.1c-0.2,0.2-0.6,0.3-1.1,0.3h-4c-0.6,0-0.9-0.1-1.1-0.3s-0.3-0.6-0.3-1.1v-3.1
		c0-0.5,0.1-0.9,0.3-1.1c0.2-0.2,0.6-0.3,1.1-0.3h4c0.6,0,1,0.1,1.2,0.3s0.3,0.6,0.3,1.2l-1.3,0.2V26h-4.2v3.7h4.2v-1.3H461v-1h3.5
		V29.5L464.5,29.5z M477.5,30.9h-1.9l-2.4-2.2h-1.3v2.2h-1.3v-5.8h5c0.9,0,1.3,0.4,1.3,1.1v1.4c0,0.6-0.2,0.9-0.7,1.1
		c-0.2,0.1-0.6,0.1-1.4,0.1L477.5,30.9L477.5,30.9z M475.6,27.2v-0.7c0-0.2-0.1-0.3-0.2-0.4c-0.1-0.1-0.2-0.1-0.4-0.1h-3.1v1.6h3.1
		c0.2,0,0.4,0,0.4-0.1C475.5,27.5,475.6,27.4,475.6,27.2L475.6,27.2z M489.9,29.5c0,0.5-0.1,0.9-0.3,1.1c-0.2,0.2-0.6,0.3-1.1,0.3
		h-4.3c-0.6,0-0.9-0.1-1.1-0.3s-0.3-0.6-0.3-1.1v-3.1c0-0.5,0.1-0.9,0.3-1.1c0.2-0.2,0.6-0.3,1.1-0.3h4.3c0.6,0,0.9,0.1,1.1,0.3
		s0.3,0.6,0.3,1.1V29.5L489.9,29.5z M488.5,29.8v-3.7H484v3.7H488.5L488.5,29.8z M502.5,29.5c0,0.5-0.1,0.9-0.3,1.1
		c-0.2,0.2-0.6,0.3-1.1,0.3h-3.7c-0.6,0-0.9-0.1-1.1-0.3S496,30,496,29.5V25h1.4v4.7h3.9V25h1.4v4.5H502.5z M515,27.5
		c0,0.8-0.4,1.1-1.3,1.1H510v2.3h-1.3v-5.8h5c0.9,0,1.3,0.4,1.3,1.1V27.5L515,27.5z M513.7,27.1v-0.6c0-0.2-0.1-0.3-0.2-0.4
		c-0.1-0.1-0.2-0.1-0.4-0.1H510v1.6h3.1c0.2,0,0.4,0,0.4-0.1C513.7,27.4,513.7,27.3,513.7,27.1z"/>
</g>
</svg>
